<?xml version="1.0" encoding="UTF-8"?>
 <svg xmlns="http://www.w3.org/2000/svg" id="Réteg_1" data-name="Réteg 1" viewBox="0 0 700.01 714.8">
 <defs>
 <style>.cls-1{fill:#fff;}</style>
 </defs>
 <path class="cls-1" d="M552.52,469a15,15,0,0,0-21.22,0,173.92,173.92,0,0,1-246,0,144.69,144.69,0,0,1-42.65-102.94V366a144.51,144.51,0,0,1,33.13-92.46c54.19-48.15,95.23-20.85,110.41-6.82,29.95,27.7,45.51,81.78,19.95,115.1a15,15,0,0,0,19.57,22c35.44-21.1,70.59-39.53,79.82-44.33a15,15,0,0,0,10.8-13.05A130.86,130.86,0,0,0,478.5,241.85c-59.1-59.11-155.27-59.11-214.37,0a174.43,174.43,0,0,0-51.44,124.09h0v28.69a174,174,0,0,1-62.81,128.69A15,15,0,1,0,169,546.41a204.06,204.06,0,0,0,64.67-96.9,176.7,176.7,0,0,0,30.42,40.72,203.94,203.94,0,0,0,288.39,0A15,15,0,0,0,552.52,469ZM486.9,335.42c-8.1,4.25-22.21,11.75-38.86,21a115.66,115.66,0,0,0-1-37.69c-5.18-28.06-19.93-55.05-40.48-74.06a113.6,113.6,0,0,0-23-16.56,121,121,0,0,1,73.69,34.93A100.83,100.83,0,0,1,486.9,335.42Z"></path>
 </svg> 